<svg xmlns:xlink="http://www.w3.org/1999/xlink" version="1.1" class="highcharts-root" style="font-family: -apple-system, BlinkMacSystemFont, &quot;Segoe UI&quot;, Roboto, Helvetica, Arial, &quot;Apple Color Emoji&quot;, &quot;Segoe UI Emoji&quot;, &quot;Segoe UI Symbol&quot;, sans-serif; font-size: 1rem;" xmlns="http://www.w3.org/2000/svg" width="600" height="400" viewBox="0 0 600 400" aria-label="Interactive chart" aria-hidden="false"><desc aria-hidden="true">Created with Highcharts 12.2.0</desc><defs aria-hidden="true"><filter id="highcharts-drop-shadow-1"><feDropShadow dx="1" dy="1" flood-color="#000000" flood-opacity="0.75" stdDeviation="2.5"/></filter><clipPath id="highcharts-18j7ukt-39-"><rect x="0" y="0" width="517" height="260" fill="none"/></clipPath></defs><rect fill="#ffffff" class="highcharts-background" filter="none" x="0" y="0" width="600" height="400" rx="0" ry="0" aria-hidden="true"/><rect fill="none" class="highcharts-plot-background" x="73" y="51" width="517" height="260" filter="none" aria-hidden="true"/><g class="highcharts-grid highcharts-xaxis-grid" data-z-index="1" aria-hidden="true"><path fill="none" stroke="#e6e6e6" stroke-width="0" stroke-dasharray="none" data-z-index="1" class="highcharts-grid-line" d="M 112.5 51 L 112.5 311" opacity="1"/><path fill="none" stroke="#e6e6e6" stroke-width="0" stroke-dasharray="none" data-z-index="1" class="highcharts-grid-line" d="M 152.5 51 L 152.5 311" opacity="1"/><path fill="none" stroke="#e6e6e6" stroke-width="0" stroke-dasharray="none" data-z-index="1" class="highcharts-grid-line" d="M 192.5 51 L 192.5 311" opacity="1"/><path fill="none" stroke="#e6e6e6" stroke-width="0" stroke-dasharray="none" data-z-index="1" class="highcharts-grid-line" d="M 232.5 51 L 232.5 311" opacity="1"/><path fill="none" stroke="#e6e6e6" stroke-width="0" stroke-dasharray="none" data-z-index="1" class="highcharts-grid-line" d="M 271.5 51 L 271.5 311" opacity="1"/><path fill="none" stroke="#e6e6e6" stroke-width="0" stroke-dasharray="none" data-z-index="1" class="highcharts-grid-line" d="M 311.5 51 L 311.5 311" opacity="1"/><path fill="none" stroke="#e6e6e6" stroke-width="0" stroke-dasharray="none" data-z-index="1" class="highcharts-grid-line" d="M 351.5 51 L 351.5 311" opacity="1"/><path fill="none" stroke="#e6e6e6" stroke-width="0" stroke-dasharray="none" data-z-index="1" class="highcharts-grid-line" d="M 391.5 51 L 391.5 311" opacity="1"/><path fill="none" stroke="#e6e6e6" stroke-width="0" stroke-dasharray="none" data-z-index="1" class="highcharts-grid-line" d="M 430.5 51 L 430.5 311" opacity="1"/><path fill="none" stroke="#e6e6e6" stroke-width="0" stroke-dasharray="none" data-z-index="1" class="highcharts-grid-line" d="M 470.5 51 L 470.5 311" opacity="1"/><path fill="none" stroke="#e6e6e6" stroke-width="0" stroke-dasharray="none" data-z-index="1" class="highcharts-grid-line" d="M 510.5 51 L 510.5 311" opacity="1"/><path fill="none" stroke="#e6e6e6" stroke-width="0" stroke-dasharray="none" data-z-index="1" class="highcharts-grid-line" d="M 550.5 51 L 550.5 311" opacity="1"/><path fill="none" stroke="#e6e6e6" stroke-width="0" stroke-dasharray="none" data-z-index="1" class="highcharts-grid-line" d="M 590.5 51 L 590.5 311" opacity="1"/><path fill="none" stroke="#e6e6e6" stroke-width="0" stroke-dasharray="none" data-z-index="1" class="highcharts-grid-line" d="M 73.5 51 L 73.5 311" opacity="1"/></g><g class="highcharts-grid highcharts-yaxis-grid" data-z-index="1" aria-hidden="true"><path fill="none" stroke="#e6e6e6" stroke-width="1" stroke-dasharray="none" data-z-index="1" class="highcharts-grid-line" d="M 73 311.5 L 590 311.5" opacity="1"/><path fill="none" stroke="#e6e6e6" stroke-width="1" stroke-dasharray="none" data-z-index="1" class="highcharts-grid-line" d="M 73 259.5 L 590 259.5" opacity="1"/><path fill="none" stroke="#e6e6e6" stroke-width="1" stroke-dasharray="none" data-z-index="1" class="highcharts-grid-line" d="M 73 207.5 L 590 207.5" opacity="1"/><path fill="none" stroke="#e6e6e6" stroke-width="1" stroke-dasharray="none" data-z-index="1" class="highcharts-grid-line" d="M 73 155.5 L 590 155.5" opacity="1"/><path fill="none" stroke="#e6e6e6" stroke-width="1" stroke-dasharray="none" data-z-index="1" class="highcharts-grid-line" d="M 73 103.5 L 590 103.5" opacity="1"/><path fill="none" stroke="#e6e6e6" stroke-width="1" stroke-dasharray="none" data-z-index="1" class="highcharts-grid-line" d="M 73 51.5 L 590 51.5" opacity="1"/></g><rect fill="none" class="highcharts-plot-border" data-z-index="1" stroke="#cccccc" stroke-width="0" x="73" y="51" width="517" height="260" aria-hidden="true"/><g class="highcharts-axis highcharts-xaxis" data-z-index="2" aria-hidden="true"><path fill="none" class="highcharts-axis-line" stroke="#333333" stroke-width="1" data-z-index="7" d="M 73 311.5 L 590 311.5"/></g><g class="highcharts-axis highcharts-yaxis" data-z-index="2" aria-hidden="true"><text x="26.299999237060547" data-z-index="7" text-anchor="middle" transform="translate(0,0) rotate(270 26.299999237060547 181)" class="highcharts-axis-title" style="font-size: 0.8em; fill: rgb(102, 102, 102);" y="181">Values</text><path fill="none" class="highcharts-axis-line" stroke="#333333" stroke-width="0" data-z-index="7" d="M 73 51 L 73 311"/></g><g class="highcharts-series-group" data-z-index="3" filter="none" aria-hidden="false"><g class="highcharts-series highcharts-series-0 highcharts-area-series highcharts-color-0" data-z-index="0.1" opacity="1" transform="translate(73,51) scale(1 1)" clip-path="url(#highcharts-18j7ukt-39-)" aria-hidden="true"><path fill="#2caffe" d="M 19.884615384615 228.904 L 59.653846153846 185.64 L 99.423076923077 149.344 L 139.19230769231 125.632 L 178.96153846154 110.24 L 218.73076923077 76.96 L 258.5 118.976 L 298.26923076923 128.96 L 338.03846153846 105.56 L 377.80769230769 34.944 L 417.57692307692 58.136 L 457.34615384615 160.576 L 497.11538461538 203.424 L 497.11538461538 260 L 457.34615384615 260 L 417.57692307692 260 L 377.80769230769 260 L 338.03846153846 260 L 298.26923076923 260 L 258.5 260 L 218.73076923077 260 L 178.96153846154 260 L 139.19230769231 260 L 99.423076923077 260 L 59.653846153846 260 L 19.884615384615 260 Z" class="highcharts-area" style="pointer-events: none;" data-z-index="0" fill-opacity="0.75"/><path fill="none" d="M 19.884615384615 228.904 L 59.653846153846 185.64 L 99.423076923077 149.344 L 139.19230769231 125.632 L 178.96153846154 110.24 L 218.73076923077 76.96 L 258.5 118.976 L 298.26923076923 128.96 L 338.03846153846 105.56 L 377.80769230769 34.944 L 417.57692307692 58.136 L 457.34615384615 160.576 L 497.11538461538 203.424" class="highcharts-graph" data-z-index="1" stroke="#2caffe" stroke-width="2" stroke-linejoin="round" stroke-linecap="round" filter="none"/></g><g class="highcharts-markers highcharts-series-0 highcharts-area-series highcharts-color-0" data-z-index="0.1" opacity="1" transform="translate(73,51) scale(1 1)" clip-path="none" aria-hidden="false"><path fill="#2caffe" d="M 19.5 232.904 A 4 4 0 1 1 19.500199999999918 232.903999995 Z" stroke="#ffffff" stroke-width="0" opacity="1" class="highcharts-point highcharts-color-0" tabindex="-1" style="outline: none;" role="img" aria-label="Jan, 29.9."/><path fill="#2caffe" d="M 59.5 189.64 A 4 4 0 1 1 59.500199999999914 189.63999999499998 Z" stroke="#ffffff" stroke-width="0" opacity="1" class="highcharts-point highcharts-color-0" tabindex="-1" style="outline: none;" role="img" aria-label="Feb, 71.5."/><path fill="#2caffe" d="M 99.5 153.344 A 4 4 0 1 1 99.50019999999992 153.343999995 Z" stroke="#ffffff" stroke-width="0" opacity="1" class="highcharts-point highcharts-color-0" tabindex="-1" style="outline: none;" role="img" aria-label="Mar, 106.4."/><path fill="#2caffe" d="M 139.5 129.632 A 4 4 0 1 1 139.50019999999992 129.631999995 Z" stroke="#ffffff" stroke-width="0" opacity="1" class="highcharts-point highcharts-color-0" tabindex="-1" style="outline: none;" role="img" aria-label="Apr, 129.2."/><path fill="#2caffe" d="M 178.5 114.24 A 4 4 0 1 1 178.50019999999992 114.23999999499999 Z" stroke="#ffffff" stroke-width="0" opacity="1" class="highcharts-point highcharts-color-0" tabindex="-1" style="outline: none;" role="img" aria-label="May, 144."/><path fill="#2caffe" d="M 218.5 80.96 A 4 4 0 1 1 218.50019999999992 80.95999999499999 Z" stroke="#ffffff" stroke-width="0" opacity="1" class="highcharts-point highcharts-color-0" tabindex="-1" style="outline: none;" role="img" aria-label="Jun, 176."/><path fill="#2caffe" d="M 258.5 122.976 A 4 4 0 1 1 258.5001999999999 122.975999995 Z" stroke="#ffffff" stroke-width="0" opacity="1" class="highcharts-point highcharts-color-0" tabindex="-1" style="outline: none;" role="img" aria-label="Jul, 135.6."/><path fill="#2caffe" d="M 298.5 132.96 A 4 4 0 1 1 298.5001999999999 132.959999995 Z" stroke="#ffffff" stroke-width="0" opacity="1" class="highcharts-point highcharts-color-0" tabindex="-1" style="outline: none;" role="img" aria-label="Aug, 126."/><path fill="#2caffe" d="M 338.5 109.56 A 4 4 0 1 1 338.5001999999999 109.559999995 Z" stroke="#ffffff" stroke-width="0" opacity="1" class="highcharts-point highcharts-color-0" tabindex="-1" style="outline: none;" role="img" aria-label="Sep, 148.5."/><path fill="#2caffe" d="M 377.5 38.944 A 4 4 0 1 1 377.5001999999999 38.943999995000006 Z" stroke="#ffffff" stroke-width="0" opacity="1" class="highcharts-point highcharts-color-0" tabindex="-1" style="outline: none;" role="img" aria-label="Oct, 216.4."/><path fill="#2caffe" d="M 417.5 62.136 A 4 4 0 1 1 417.5001999999999 62.135999995000006 Z" stroke="#ffffff" stroke-width="0" opacity="1" class="highcharts-point highcharts-color-0" tabindex="-1" style="outline: none;" role="img" aria-label="Nov, 194.1."/><path fill="#2caffe" d="M 457.5 164.576 A 4 4 0 1 1 457.5001999999999 164.575999995 Z" stroke="#ffffff" stroke-width="0" opacity="1" class="highcharts-point highcharts-color-0" tabindex="-1" style="outline: none;" role="img" aria-label="Dec, 95.6."/><path fill="#2caffe" d="M 497.5 207.424 A 4 4 0 1 1 497.5001999999999 207.423999995 Z" stroke="#ffffff" stroke-width="0" opacity="1" class="highcharts-point highcharts-color-0" tabindex="-1" style="outline: none;" role="img" aria-label="12, 54.4."/></g></g><g class="highcharts-label highcharts-series-label highcharts-series-label-0 highcharts-color-0" opacity="1" data-z-index="3" transform="translate(229,228)" aria-hidden="true"><path fill="none" class="highcharts-label-box" d="M 0 0" stroke="#2caffe" stroke-width="1"/><text x="0" data-z-index="1" style="font-size: 0.8em; font-weight: bold; fill: rgb(0, 0, 0);" y="12">Series 1</text></g><text x="300" class="highcharts-title" data-z-index="4" style="font-size: 1.2em; font-weight: bold; fill: rgb(51, 51, 51);" text-align="center" y="25" text-anchor="middle" transform-origin="55.53333282470703 22" transform="translate(0,0) scale(1 1)" aria-hidden="true">Chart title</text><text x="300" class="highcharts-subtitle" data-z-index="4" style="font-size: 0.8em; fill: rgb(102, 102, 102);" text-align="center" y="50" text-anchor="middle" transform-origin="10 15" transform="translate(0,0) scale(1 1)" aria-hidden="true"/><text x="10" text-anchor="start" class="highcharts-caption" data-z-index="4" style="font-size: 0.8em; fill: rgb(102, 102, 102);" text-align="left" y="397" transform-origin="10 15" transform="translate(0,0) scale(1 1)" aria-hidden="true"/><g class="highcharts-legend highcharts-no-tooltip" data-z-index="7" text-align="center" transform="translate(260,355)" aria-hidden="true"><rect fill="none" class="highcharts-legend-box" rx="0" ry="0" stroke="#999999" stroke-width="0" filter="none" x="0" y="0" width="81" height="30"/><g data-z-index="1"><g><g class="highcharts-legend-item highcharts-area-series highcharts-color-0 highcharts-series-0" data-z-index="1" transform="translate(8,3)"><path fill="none" class="highcharts-graph" stroke-width="2" stroke-linecap="round" d="M 1 12 L 15 12" stroke="#2caffe"/><path fill="#2caffe" class="highcharts-area" d="M 1 12 L 15 12 L 15 17 L 1 17" fill-opacity="0.75"/><path fill="#2caffe" d="M 8 16 A 4 4 0 1 1 8.000199999999918 15.999999995 Z" class="highcharts-point" stroke="#ffffff" stroke-width="0" opacity="1"/><text x="21" style="cursor: pointer; font-size: 0.8em; text-decoration: none; fill: rgb(51, 51, 51);" text-anchor="start" data-z-index="2" y="17">Series 1</text></g></g></g></g><g class="highcharts-axis-labels highcharts-xaxis-labels" data-z-index="7" aria-hidden="true"><text x="92.88461538461462" style="cursor: default; font-size: 0.8em; fill: rgb(51, 51, 51);" text-anchor="middle" transform="translate(0,0)" y="338" opacity="1">Jan</text><text x="132.65384615384463" style="cursor: default; font-size: 0.8em; fill: rgb(51, 51, 51);" text-anchor="middle" transform="translate(0,0)" y="338" opacity="1">Feb</text><text x="172.4230769230746" style="cursor: default; font-size: 0.8em; fill: rgb(51, 51, 51);" text-anchor="middle" transform="translate(0,0)" y="338" opacity="1">Mar</text><text x="212.1923076923046" style="cursor: default; font-size: 0.8em; fill: rgb(51, 51, 51);" text-anchor="middle" transform="translate(0,0)" y="338" opacity="1">Apr</text><text x="251.96153846153462" style="cursor: default; font-size: 0.8em; fill: rgb(51, 51, 51);" text-anchor="middle" transform="translate(0,0)" y="338" opacity="1">May</text><text x="291.7307692307646" style="cursor: default; font-size: 0.8em; fill: rgb(51, 51, 51);" text-anchor="middle" transform="translate(0,0)" y="338" opacity="1">Jun</text><text x="331.50000000000466" style="cursor: default; font-size: 0.8em; fill: rgb(51, 51, 51);" text-anchor="middle" transform="translate(0,0)" y="338" opacity="1">Jul</text><text x="371.26923076923464" style="cursor: default; font-size: 0.8em; fill: rgb(51, 51, 51);" text-anchor="middle" transform="translate(0,0)" y="338" opacity="1">Aug</text><text x="411.0384615384646" style="cursor: default; font-size: 0.8em; fill: rgb(51, 51, 51);" text-anchor="middle" transform="translate(0,0)" y="338" opacity="1">Sep</text><text x="450.80769230769465" style="cursor: default; font-size: 0.8em; fill: rgb(51, 51, 51);" text-anchor="middle" transform="translate(0,0)" y="338" opacity="1">Oct</text><text x="490.57692307692463" style="cursor: default; font-size: 0.8em; fill: rgb(51, 51, 51);" text-anchor="middle" transform="translate(0,0)" y="338" opacity="1">Nov</text><text x="530.3461538461546" style="cursor: default; font-size: 0.8em; fill: rgb(51, 51, 51);" text-anchor="middle" transform="translate(0,0)" y="338" opacity="1">Dec</text><text x="570.1153846153846" style="cursor: default; font-size: 0.8em; fill: rgb(51, 51, 51);" text-anchor="middle" transform="translate(0,0)" y="338" opacity="1">12</text></g><g class="highcharts-axis-labels highcharts-yaxis-labels" data-z-index="7" aria-hidden="true"><text x="58" style="cursor: default; font-size: 0.8em; fill: rgb(51, 51, 51);" text-anchor="end" transform="translate(0,0)" y="315" opacity="1">0</text><text x="58" style="cursor: default; font-size: 0.8em; fill: rgb(51, 51, 51);" text-anchor="end" transform="translate(0,0)" y="263" opacity="1">50</text><text x="58" style="cursor: default; font-size: 0.8em; fill: rgb(51, 51, 51);" text-anchor="end" transform="translate(0,0)" y="211" opacity="1">100</text><text x="58" style="cursor: default; font-size: 0.8em; fill: rgb(51, 51, 51);" text-anchor="end" transform="translate(0,0)" y="159" opacity="1">150</text><text x="58" style="cursor: default; font-size: 0.8em; fill: rgb(51, 51, 51);" text-anchor="end" transform="translate(0,0)" y="107" opacity="1">200</text><text x="58" style="cursor: default; font-size: 0.8em; fill: rgb(51, 51, 51);" text-anchor="end" transform="translate(0,0)" y="55" opacity="1">250</text></g><text x="590" class="highcharts-credits" text-anchor="end" data-z-index="8" style="cursor: pointer; font-size: 0.6em; fill: rgb(153, 153, 153);" text-align="right" y="395" aria-label="Chart credits: Highcharts.com" aria-hidden="false">Highcharts.com</text></svg>